<?xml version="1.0" ?><svg height="50px" id="Слой_1" style="enable-background:new 0 0 50 50;" version="1.1" viewBox="0 0 50 50" width="50px" xml:space="preserve" xmlns="http://www.w3.org/2000/svg" xmlns:xlink="http://www.w3.org/1999/xlink"><style type="text/css">
	.st0{fill:#374163;}
</style><g><path class="st0" d="M42.02494,23.50065c-0.66392,0-1.32415-0.28585-1.77967-0.83912l-4.4962-5.46072   c-0.80777-0.98112-0.66761-2.43068,0.31536-3.24029c0.97559-0.80777,2.43068-0.66945,3.24028,0.31536l4.4962,5.46072   c0.80777,0.98112,0.66761,2.43068-0.31536,3.24029C43.0577,23.32914,42.53948,23.50065,42.02494,23.50065z"/><path class="st0" d="M42.02125,23.50065c-0.35778,0-0.72109-0.08299-1.06042-0.25819   c-1.12682-0.58646-1.56574-1.977-0.98112-3.10566l5.67465-10.9196c0.58461-1.12866,1.97147-1.56758,3.10566-0.98112   c1.12681,0.58646,1.56574,1.977,0.98112,3.10566l-5.67465,10.9196C43.65523,23.04882,42.85299,23.50065,42.02125,23.50065z"/><path class="st0" d="M19.7542,28.53352c-7.05412,0-12.79332-5.7392-12.79332-12.79517c0-7.05412,5.7392-12.79332,12.79332-12.79332   c6.99511,0,12.68636,5.7392,12.68636,12.79332C32.44056,22.79432,26.74931,28.53352,19.7542,28.53352z M19.7542,7.54819   c-4.51648,0-8.19016,3.67368-8.19016,8.19016s3.67368,8.192,8.19016,8.192c4.45747,0,8.0832-3.67552,8.0832-8.192   S24.21166,7.54819,19.7542,7.54819z"/><path class="st0" d="M37.10089,47.05497c-0.89445,0-1.74279-0.52191-2.11716-1.39423   c-2.62063-6.11173-8.59958-10.06204-15.22953-10.06204c-6.69635,0-12.71586,3.95031-15.33649,10.06204   c-0.50163,1.16555-1.85344,1.7059-3.02267,1.20796c-1.16739-0.50163-1.70959-1.85344-1.20796-3.02267   c3.34725-7.80656,11.02841-12.85049,19.56713-12.85049c8.47417,0,16.11291,5.04393,19.46016,12.85049   c0.50163,1.16924-0.04057,2.52105-1.20796,3.02267C37.70948,46.99596,37.40334,47.05497,37.10089,47.05497z"/></g></svg>