<?xml version="1.0" ?><!DOCTYPE svg  PUBLIC '-//W3C//DTD SVG 1.1//EN'  'http://www.w3.org/Graphics/SVG/1.1/DTD/svg11.dtd'><svg enable-background="new 0 0 158.52 155.031" height="155.031px" id="icons" version="1.1" viewBox="0 0 158.52 155.031" width="158.52px" xml:space="preserve" xmlns="http://www.w3.org/2000/svg" xmlns:xlink="http://www.w3.org/1999/xlink"><g><path d="M19.15,138.571c8.249,8.972,26.341,7.777,58.673,7.777c20.899,0,43.147,6.463,56.616-6.957   c13.521-13.471,13.055-26.455,13.055-53.698c0-9.074,0.375-20.115,0.708-27.255c0.911-19.527,1.513-29.314-6.707-38.055   c-6.79-7.221-8.609-11.821-31.869-12.314C103.001,7.928,74.749,7,53.124,7c-15.476,0-23.52-2.016-32.976,6.936   c-8.962,8.485-7.673,20-7.673,46.497C12.475,89.867,6.614,124.937,19.15,138.571z" fill="#FF0F50"/><circle cx="76.26" cy="82.515" fill="#FFFFFF" r="52.5"/><circle cx="81.26" cy="76.515" fill="#38A890" r="36"/><path d="M114.06,77.613c-0.476,7.104-2.303,14.156-6.758,19.873c-2.441,3.132-4.444,6.316-7.754,8.658   c-3.15,2.23-6.8,3.876-10.503,4.937c-5.924,1.697-12.044,1.211-18.067,0.292c-7.354-1.122-14.111-5.327-18.644-11.217   c-2.474-3.215-4.074-6.934-5.258-10.793c-1.059-3.452-2.04-6.922-2.553-10.499c-0.987-6.889,1.004-13.735,4.601-19.599   c4.224-6.887,10.535-12.614,18.536-14.447c3.783-0.867,7.463-2.009,11.37-1.912c2.323,0.058,4.684,0.431,6.952,0.906   c8.393,1.759,16.814,5.884,21.948,12.932C112.355,62.816,113.958,70.218,114.06,77.613z M110.229,77.515   c-0.215-3.884-0.333-7.855-1.833-11.502c-1.776-4.317-5.147-8.036-8.539-11.174c-3.461-3.202-7.711-6.091-12.452-6.859   c-2.607-0.422-5.728-1.054-8.16-1.08c-3.716-0.212-7.038,0.252-10.549,1.538c-2.679,0.981-5.288,2.31-7.637,3.936   c-6.428,4.627-11.648,11.28-13.089,19.239c-2.14,11.823,3.895,24.148,13.248,31.234c5.304,4.018,11.413,6.389,18.101,6.048   c0.815,0.005,2.111-0.337,2.969-0.508c2.344-0.468,4.709-0.829,6.973-1.623c4.552-1.597,8.654-4.076,12.049-7.526   c3.2-3.252,5.538-7.205,6.968-11.531c0.685-2.072,1.169-4.168,1.583-6.307C109.962,80.878,110.308,77.534,110.229,77.515z"/><circle cx="80.26" cy="76.515" fill="#2B2B2B" r="18.5"/><path d="M98.39,77.628c-0.398,7.177-4.023,13.729-10.486,17.176c-5.206,2.777-11.527,2.655-16.674-0.194   c-5.922-3.279-11.938-10.062-11.39-17.308c0.261-3.455,1.154-6.608,3.134-9.497c2.356-3.437,5.892-6.04,9.715-7.629   c5.667-2.355,11.839-1.468,17.029,1.692C95.066,65.318,98.264,71.295,98.39,77.628z M93.953,77.515   c-0.124-3.983-1.341-7.638-4.139-10.567c-2.827-2.961-6.615-4.369-10.607-4.8c-8.676,0.183-15.614,7.57-15.003,16.356   c0.319,4.579,2.626,8.89,6.555,11.355c2.605,1.635,5.822,2.098,8.523,2.148c4.159-0.383,8.009-1.663,10.936-4.792   C92.587,84.682,94.165,80.635,93.953,77.515z"/><circle cx="93.285" cy="57.254" fill="#FFFFFF" r="17.5"/><path d="M111.676,58.329c-0.295,7.368-4.19,14.208-11.153,17.199c-6.109,2.623-12.885,1.46-18.206-2.418   c-5.722-4.17-9.389-10.96-7.965-18.105c1.584-7.952,8.759-14.336,16.696-15.394c4.758-0.634,9.671,0.748,13.459,3.69   C109.193,46.941,111.6,52.469,111.676,58.329z M103.857,47.669c-2.976-2.618-6.786-3.731-10.662-4.049   c0.027-0.002,0.055-0.002,0.082,0.001c-4.126,0.086-8.159,0.961-11.079,4.117c-2.644,2.858-3.675,6.679-3.504,10.516   c0.435,4.592,2.14,8.892,5.982,11.696c2.553,1.864,5.796,2.784,8.63,2.843c4.197-0.241,7.575-1.984,10.567-4.927   c1.549-1.524,2.815-3.27,3.781-5.225C109.823,58.254,107.017,50.449,103.857,47.669z"/><path d="M127.843,1.707c7.049,0.259,13.817,2.62,19.15,7.334c2.988,2.641,5.468,5.949,6.944,9.668   c1.526,3.844,1.611,7.71,1.642,11.782c0.069,8.895,0.1,17.72,0.764,26.595c0.204,2.725,0.479,5.45,0.466,8.185   c-0.019,3.992-0.23,7.97-0.462,11.955c-0.105,1.798-0.206,3.595-0.293,5.394c-0.019,0.382-0.037,0.764-0.056,1.145   c-0.003,0.055-0.026,0.603-0.018,0.303c0.015,8.342,0.19,16.684,0.162,25.026c-0.015,4.515-0.141,9.007-0.483,13.509   c-0.232,3.058-0.343,6.228-1.016,9.232c-1.714,7.658-6.798,14.6-13.509,18.652c-7.566,4.568-16.565,3.832-25.051,3.955   c-8.953,0.13-17.959,0.073-26.905-0.291c-9.138-0.372-18.251-1.169-27.39-1.532c-9.255-0.368-18.443,0.232-27.68,0.784   c-2.356,0.141-4.717,0.315-7.077,0.38c-3.715,0.103-7.486-0.829-10.848-2.374c-6.992-3.321-12.085-9.729-13.744-17.29   c-0.909-4.144-0.623-8.456-0.622-12.669c0.001-4.613-0.01-9.226-0.041-13.839c-0.061-9.099-0.072-18.197-0.068-27.297   c0.003-9.068,0.685-18.05,1.219-27.097c0.265-4.489-0.181-8.838-0.365-13.309c-0.146-3.566,0.044-7.157,0.268-10.717   C3.288,21.343,6.49,13.583,12.843,8.71c3.341-2.563,7.276-4.276,11.409-5.061c4.281-0.813,8.731-0.686,13.07-0.786   c8.832-0.204,17.663-0.447,26.498-0.497c12.188-0.069,24.361,0.149,36.549-0.09C109.524,2.096,118.687,1.777,127.843,1.707z    M127.744,7.63c-5.988,0.141-11.969,0.29-17.958,0.339c-8.431,0.069-16.804,0.604-25.215,1.123   C76.44,9.594,68.307,9.684,60.162,9.531c-8.913-0.167-17.818-0.785-26.731-0.875c-4.108-0.041-8.211-0.146-12.063,1.513   c-3.664,1.577-6.792,4.449-8.819,7.876c-2.992,5.059-3.601,10.597-4.005,16.312c-0.629,8.893-0.06,17.891-0.051,26.803   c0.01,9.047-0.147,18.083-0.332,27.128c-0.188,9.205-0.385,18.41-0.537,27.615c-0.136,8.272-1.651,17.582,3.555,24.703   c2.188,2.992,5.249,5.357,8.697,6.714c3.95,1.555,7.843,1.418,12,1.264c5.705-0.212,11.41-0.425,17.115-0.647   c8.301-0.324,16.659-0.243,24.967-0.267c9.049-0.026,18.101,0.023,27.149,0.117c8.893,0.092,17.803,0.352,26.696,0.308   c7.913-0.039,15.953-3.925,19.958-10.934c3.266-5.33,2.495-11.798,2.281-17.753c-0.263-7.297-0.198-14.616-0.255-21.918   c-0.041-5.289-0.218-10.594,0.013-15.88c0.258-5.91,0.516-11.82,0.775-17.729c0.209-11.554-0.489-24.215-0.801-36.154   C149.469,16.012,138.889,8.04,127.744,7.63z"/><path d="M133.851,77.621c-0.445,6.976-1.549,13.611-4.177,20.131c-1.589,3.941-3.671,7.552-6.155,10.991   c-2.463,3.41-4.911,6.769-7.918,9.727c-10.247,10.08-25.602,14.31-39.664,13.571c-14.451-0.76-28.488-7.851-38.008-18.656   c-0.851-0.966-1.75-1.952-2.267-3.146c-0.766-1.769-1.758-3.252-2.762-4.896c-2.146-3.514-3.875-7.276-5.237-11.159   c-1.035-2.95-1.711-5.984-2.249-9.055c-1.15-6.557-1.062-13.616,0.446-20.11c1.87-8.052,5.254-16.109,11.088-22.097   c3.854-3.955,8.689-6.901,12.372-11.013c2.378-2.655,5.482-3.626,8.714-4.936c4.092-1.658,8.325-3.1,12.724-3.654   c2.163-0.272,4.056,0.009,6.2,0.198c1.004,0.089,2.002-0.027,3.007-0.01c3.626,0.063,7.262-0.61,10.858,0.235   c8.23,1.934,16.012,6.13,22.548,11.405c3.191,2.576,5.897,5.756,8.323,9.045c0.877,1.189,2.403,1.746,3.172,3.027   c1.137,1.893,2.338,3.741,3.32,5.722C132.017,60.671,133.813,69.006,133.851,77.621z M129.666,77.515   c-0.359-6.942-1.426-13.523-4.156-19.968c-3.042-7.182-7.944-13.64-13.913-18.649c-6.254-5.248-13.999-8.938-21.897-10.943   c-6.054-1.536-12.617-0.905-18.728-0.153c-5.772,0.711-12.038,3.114-17.015,6.163c-2.608,1.598-5.195,3.113-7.583,5.059   c-3.138,2.558-5.947,5.512-8.391,8.737c-6.051,7.985-9.041,17.866-9.524,27.766c-0.364,7.456,1.098,14.991,4.026,21.847   c3.195,7.48,8.364,14.861,14.693,20.034c2.353,1.923,4.936,3.828,7.786,4.956c3.142,1.243,6.615,2.563,9.897,3.38   c6.382,1.587,12.568,2.307,19.049,1.933c4.262-0.246,8.697-1.049,12.702-2.535c1.849-0.686,3.533-1.798,5.299-2.67   c1.847-0.912,3.586-1.98,5.348-3.048c13.363-9.007,21.185-23.854,22.26-39.806c0.042-0.616,0.083-1.232,0.125-1.848   C129.663,77.492,129.738,77.461,129.666,77.515z"/></g></svg>