<?xml version="1.0" ?><svg enable-background="new 0 0 52 52" id="Layer_1" version="1.1" viewBox="0 0 52 52" xml:space="preserve" xmlns="http://www.w3.org/2000/svg" xmlns:xlink="http://www.w3.org/1999/xlink"><g><path d="M41.0026245,22.0021362v-3.6595459c0-4.3330078-1.5473633-8.4257813-4.3613281-11.5283203   c-2.8505859-3.1064453-6.6289063-4.8164063-10.6386719-4.8164063c-8.2709961,0-15,7.3320313-15,16.3447266v3.6595459H7   l0.0700073,28H45v-28H41.0026245z M13.0026245,18.3425903c0-7.9101563,5.831543-14.3447266,13-14.3447266   c3.4428711,0,6.6977539,1.4804688,9.1611328,4.1640625c2.4755859,2.7294922,3.8388672,6.3447266,3.8388672,10.1806641v3.6552734   h-26V18.3425903z M27.0026245,37.859314v3.1385498h-2v-3.1379395C23.2839966,37.4119263,22,35.8560181,22,34.0021362   c0-2.210083,1.7999878-4,4-4c2.210022,0,4,1.789917,4,4C30,35.8552856,28.723938,37.4104614,27.0026245,37.859314z"/></g></svg>