<?xml version="1.0" ?><svg clip-rule="evenodd" fill-rule="evenodd" image-rendering="optimizeQuality" shape-rendering="geometricPrecision" text-rendering="geometricPrecision" viewBox="0 0 500 500" xmlns="http://www.w3.org/2000/svg"><defs><linearGradient gradientUnits="userSpaceOnUse" id="a" x1="473.373" x2="29.997" y1="250" y2="250"><stop offset="0" stop-color="#008BFF"/><stop offset="1" stop-color="#0af"/></linearGradient></defs><path d="M460 230l-100-100c-5-5-10-10-20-10s-20 10-20 20v50c0 5-5 10-10 10h-110c-94 0-170 76-170 170 0 10 10 10 10 0 0-39 31-70 70-70h200c5 0 10 5 10 10v50c0 10 10 20 20 20s15-5 20-10l100-100c13-13 13-27 0-40z" fill="url(#a)" stroke="#2B2A29" stroke-width="10"/></svg>